<svg width="558" height="339" viewBox="0 0 558 339" fill="none" xmlns="http://www.w3.org/2000/svg">
<path fill-rule="evenodd" clip-rule="evenodd" d="M0 0H170.386V64.9944L141.11 64.9944L181.974 221.033L232.261 0H346.372L391.231 229.889L429.478 64.9944L387.614 64.9944V0H558V64.9944L519.063 64.9944L443.092 338.88H365.95L283.83 338.88L212.836 338.88H103.783L34.5456 64.9944L0 64.9944V0Z" fill="#74974A"/>
<path fill-rule="evenodd" clip-rule="evenodd" d="M296.619 273.058C351.208 261.154 345.627 196.94 332.746 206.569C321.182 259.26 231.864 221.196 271.049 181.402C310.233 141.609 196.46 191.079 219.448 225.559C223.909 235.381 234.659 249.576 248.846 260.087V339H295.674V273.254C295.989 273.192 296.304 273.127 296.619 273.058Z" fill="white"/>
</svg>
